<?xml version="1.0" encoding="UTF-8" standalone="yes"?>
<svg width="512" height="512" viewBox="0 0 512 512" fill="none" version="1.2" baseProfile="tiny-ps" xmlns="http://www.w3.org/2000/svg">
  <title>bimi-svg-tiny-12-ps</title>
  <g>
    <path d="M0 256C0 114.615 114.615 0 256 0C397.385 0 512 114.615 512 256C512 397.385 397.385 512 256 512C114.615 512 0 397.385 0 256Z" fill="#7EAEC5"/>
    <path d="M187.42 197.138C189.268 195.259 191.793 194.201 194.429 194.201H268.629C272.366 194.201 274.253 198.704 271.634 201.368L160.86 314.004C158.484 316.42 155.238 317.779 151.849 317.779H78.8244C75.088 317.779 73.201 313.277 75.8209 310.613L187.42 197.138Z" fill="white"/>
    <path d="M338.332 228.005C340.175 226.16 342.676 225.126 345.283 225.126H398.44C402.194 225.126 404.074 229.662 401.418 232.318L319.622 314.108C317.251 316.477 314.037 317.81 310.684 317.81H258.692C254.939 317.81 253.058 313.271 255.714 310.617L338.332 228.005Z" fill="white"/>
    <path d="M277.539 197.196C276.994 195.427 275.36 194.219 273.51 194.219H258.588L296.507 317.771H314.545L277.539 197.196Z" fill="white"/>
    <path d="M407.473 228.005C406.898 226.286 405.289 225.126 403.476 225.126H393.175L424.076 317.81H437.413L407.473 228.005Z" fill="white"/>
  </g>
  <defs/>
</svg>