<svg width="547" height="489" viewBox="0 0 547 489" fill="none" xmlns="http://www.w3.org/2000/svg">
<g clip-path="url(#clip0_7_2)">
<path d="M0 244.5C0 109.466 122.45 0 273.5 0C424.55 0 547 109.466 547 244.5C547 379.534 424.55 489 273.5 489C122.45 489 0 379.534 0 244.5Z" fill="#7EAEC5"/>
<path d="M200.232 188.282C202.206 186.488 204.904 185.477 207.72 185.477H286.993C290.984 185.477 293.001 189.778 290.203 192.322L171.857 299.899C169.318 302.206 165.85 303.504 162.23 303.504H84.2128C80.221 303.504 78.205 299.204 81.004 296.66L200.232 188.282Z" fill="white"/>
<path d="M361.461 217.762C363.429 216 366.101 215.013 368.886 215.013H425.677C429.688 215.013 431.696 219.346 428.859 221.882L341.471 299.998C338.938 302.26 335.504 303.533 331.923 303.533H276.376C272.367 303.533 270.357 299.198 273.194 296.664L361.461 217.762Z" fill="white"/>
<path d="M296.511 188.337C295.929 186.648 294.184 185.494 292.207 185.494H276.265L316.776 303.496H336.047L296.511 188.337Z" fill="white"/>
<path d="M435.327 217.762C434.713 216.121 432.994 215.013 431.058 215.013H420.053L453.066 303.533H467.314L435.327 217.762Z" fill="white"/>
</g>
<defs>
<clipPath id="clip0_7_2">
<rect width="547" height="489" fill="white"/>
</clipPath>
</defs>
</svg>
